<?xml version="1.0" encoding="utf-8"?>
<!-- Generator: Adobe Illustrator 22.0.0, SVG Export Plug-In . SVG Version: 6.00 Build 0)  -->
<svg version="1.1" id="图层_1" xmlns="http://www.w3.org/2000/svg" xmlns:xlink="http://www.w3.org/1999/xlink" x="0px" y="0px"
	 viewBox="0 0 133 40" style="enable-background:new 0 0 133 40;" xml:space="preserve">
<style type="text/css">
	.st0{opacity:0.6;fill:#4A4F54;enable-background:new    ;}
	.st1{fill:#4A4F54;}
</style>
<title>4BE0348A-C6F4-4151-B756-C76BDCC97048</title>
<desc>Created with sketchtool.</desc>
<g>
	<path class="st0" d="M40.3,24.6H29l4.2-7h7.1c2.7,0,4.4,3,3,5.3l0,0C42.7,24,41.6,24.6,40.3,24.6z"/>
	<path class="st0" d="M41,34.4H23.4l4.2-7H41c2.7,0,4.4,3,3,5.3l0,0C43.4,33.7,42.3,34.4,41,34.4z"/>
	<g>
		<path class="st1" d="M38.4,7.1H36h-8.4L16.2,27.4h-5.3v7h1.4h7.7h0.7l11.4-20.3h6.3c1,0,2-0.5,2.7-1.3C43,10.6,41.4,7.1,38.4,7.1z
			"/>
		<polygon class="st1" points="8.8,27.4 8.8,14.1 12.3,14.1 21.3,14.1 25.6,7.1 12.3,7.1 1.8,7.1 1.8,34.4 12.3,34.4 12.3,27.4 		
			"/>
	</g>
</g>
<g>
	<path class="st1" d="M62.5,15.4c-0.5,0-0.9,0.1-1.3,0.3c-0.3,0.1-0.5,0.3-0.7,0.5c-0.2,0.2-0.3,0.5-0.4,0.7
		c-0.1,0.3-0.1,0.5-0.1,0.7v6.1c0,0.3,0,0.5,0.1,0.7c0.1,0.2,0.2,0.5,0.4,0.7c0.2,0.2,0.4,0.4,0.7,0.5c0.3,0.1,0.7,0.2,1.3,0.3V28
		c-1.4,0-2.5-0.2-3.4-0.4c-0.9-0.3-1.6-0.6-2.2-1c-0.5-0.4-1-0.9-1.2-1.5c-0.2-0.6-0.4-1.2-0.4-1.8v-4.9c0-0.6,0.1-1.3,0.4-1.8
		c0.2-0.6,0.6-1.1,1.2-1.5c0.5-0.4,1.3-0.8,2.2-1c0.9-0.3,2.1-0.4,3.4-0.4V15.4z M63.2,13.5c1.3,0,2.4,0.2,3.2,0.4
		c0.9,0.2,1.6,0.5,2.1,1c0.5,0.4,0.9,0.9,1.2,1.4c0.2,0.5,0.4,1.1,0.4,1.8v1.1h-4.7v-1.2c0-0.3,0-0.5-0.1-0.8
		c-0.1-0.3-0.2-0.5-0.3-0.8c-0.2-0.2-0.4-0.4-0.7-0.6c-0.3-0.2-0.7-0.3-1.2-0.3L63.2,13.5L63.2,13.5z M63.2,26.1
		c0.5,0,0.9-0.1,1.2-0.3c0.3-0.2,0.5-0.4,0.7-0.6c0.2-0.2,0.3-0.5,0.3-0.8s0.1-0.6,0.1-0.9v-1.3h4.6v1.1c0,0.6-0.1,1.2-0.4,1.7
		c-0.2,0.5-0.6,1.1-1.1,1.5c-0.5,0.4-1.2,0.8-2.1,1c-0.9,0.3-2,0.4-3.3,0.5L63.2,26.1L63.2,26.1z"/>
	<path class="st1" d="M72.4,27.7v-14h4.8v14C77.2,27.7,72.4,27.7,72.4,27.7z M77.9,19.4h0.8c0.5,0,1-0.1,1.3-0.2
		c0.4-0.1,0.6-0.3,0.8-0.5c0.2-0.2,0.3-0.4,0.4-0.6c0.1-0.3,0.1-0.5,0.1-0.8c0-0.4-0.1-0.7-0.2-1c-0.2-0.3-0.4-0.4-0.6-0.5
		c-0.3-0.1-0.6-0.2-1-0.3c-0.4,0-0.9-0.1-1.4-0.1h-0.2v-1.7H78c1.2,0,2.2,0.1,3.2,0.2c1,0.1,1.8,0.3,2.4,0.6
		c0.7,0.3,1.2,0.6,1.6,1.1c0.4,0.5,0.5,1,0.5,1.7c0,0.7-0.3,1.3-0.9,1.7c-0.6,0.5-1.6,0.8-2.9,1c0.8,0.1,1.5,0.3,2.1,0.5
		c0.6,0.2,1,0.5,1.4,0.8c0.4,0.3,0.6,0.6,0.8,1c0.2,0.4,0.2,0.8,0.2,1.2c0,0.7-0.1,1.3-0.4,1.8s-0.7,0.9-1.4,1.3
		c-0.6,0.4-1.4,0.6-2.3,0.8c-0.9,0.2-2.1,0.3-3.4,0.3h-1V26h0.6c0.7,0,1.3-0.1,1.7-0.2c0.4-0.1,0.8-0.3,1-0.5s0.4-0.5,0.5-0.8
		s0.1-0.7,0.1-1.1c0-0.4-0.1-0.7-0.2-1c-0.1-0.3-0.3-0.5-0.5-0.8c-0.3-0.2-0.6-0.4-1-0.5c-0.4-0.1-1-0.2-1.6-0.2h-0.6V19.4z"/>
	<path class="st1" d="M94.9,19l-1.3,4.2h2.7l0.4,1.5h-3.5l-1.2,3.1h-4.7l5.6-14L94.9,19z M93.9,13.8h3.6l5.7,14h-4.6l-3-8.9
		L93.9,13.8z"/>
	<path class="st1" d="M110.9,28c-1.1,0-2.1-0.2-3-0.4c-0.8-0.2-1.5-0.5-2.1-0.9c-0.5-0.4-1-0.8-1.3-1.3s-0.5-1-0.5-1.5l4.8-0.5
		c0,0.3,0.1,0.6,0.1,0.9c0.1,0.3,0.2,0.6,0.3,0.8c0.2,0.3,0.4,0.5,0.6,0.6c0.3,0.2,0.6,0.3,1,0.4L110.9,28L110.9,28z M109.2,21.3
		l-1.1-0.5c-0.5-0.2-1-0.5-1.5-0.7c-0.5-0.3-0.9-0.5-1.3-0.8c-0.4-0.3-0.7-0.6-0.9-1c-0.2-0.4-0.4-0.8-0.4-1.2c0-0.5,0.2-1,0.5-1.4
		s0.8-0.8,1.4-1.1c0.6-0.3,1.3-0.5,2.1-0.7c0.8-0.2,1.7-0.3,2.7-0.3v1.9c-0.3,0-0.6,0.1-0.9,0.2c-0.3,0.1-0.5,0.2-0.6,0.3
		c-0.2,0.1-0.3,0.3-0.4,0.4c-0.1,0.2-0.1,0.3-0.1,0.5c0,0.2,0.1,0.5,0.2,0.6c0.1,0.2,0.3,0.4,0.5,0.6c0.2,0.2,0.5,0.4,0.7,0.5
		c0.3,0.2,0.6,0.3,0.9,0.5c0.1,0.1,0.3,0.2,0.6,0.3c0.2,0.1,0.5,0.2,0.7,0.4L109.2,21.3z M112.9,19.9l0.5,0.3c0.6,0.3,1.3,0.6,1.8,1
		c0.6,0.3,1.1,0.7,1.5,1c0.4,0.4,0.8,0.8,1,1.2c0.3,0.4,0.4,0.9,0.4,1.4c0,0.5-0.2,0.9-0.5,1.3c-0.4,0.4-0.8,0.7-1.4,1
		c-0.6,0.3-1.3,0.5-2.1,0.7c-0.8,0.2-1.6,0.3-2.5,0.3v-1.9c0.4,0,0.6-0.1,0.9-0.1c0.2-0.1,0.4-0.2,0.6-0.3c0.2-0.1,0.3-0.3,0.3-0.4
		c0.1-0.2,0.1-0.3,0.1-0.5c0-0.3-0.1-0.6-0.3-0.8c-0.2-0.3-0.4-0.5-0.7-0.8c-0.3-0.3-0.6-0.5-1-0.7s-0.8-0.5-1.2-0.6l-0.6-0.3
		L112.9,19.9z M111.5,13.5c0.9,0,1.8,0.1,2.6,0.3c0.8,0.2,1.5,0.4,2.1,0.7s1,0.7,1.4,1.1c0.4,0.4,0.5,0.9,0.6,1.4v0.3l-4.8,0.4
		c0-0.1,0-0.2,0-0.2s0-0.2,0-0.3c0-0.2-0.1-0.4-0.1-0.5c-0.1-0.2-0.2-0.4-0.3-0.5c-0.1-0.2-0.3-0.3-0.5-0.4
		c-0.2-0.1-0.5-0.2-0.8-0.3L111.5,13.5L111.5,13.5z"/>
	<path class="st1" d="M120.3,27.7v-14h4.8v14C125.1,27.7,120.3,27.7,120.3,27.7z M125.8,13.8h5.3v1.7h-5.3V13.8z M125.8,19.6h3.5
		v1.8h-3.5V19.6z M125.8,26h5.3v1.7h-5.3V26z"/>
</g>
</svg>
