<?xml version="1.0" encoding="utf-8"?>
<!-- Generator: Adobe Illustrator 22.0.0, SVG Export Plug-In . SVG Version: 6.00 Build 0)  -->
<svg version="1.1" id="图层_1" xmlns="http://www.w3.org/2000/svg" xmlns:xlink="http://www.w3.org/1999/xlink" x="0px" y="0px"
	 viewBox="0 0 133 40" style="enable-background:new 0 0 133 40;" xml:space="preserve">
<style type="text/css">
	.st0{opacity:0.6;fill:#4A4F54;enable-background:new    ;}
	.st1{fill:#4A4F54;}
</style>
<title>near-footer-logo</title>
<desc>Created with Sketch.</desc>
<g>
	<path class="st0" d="M40.8,24.5H29.7l4.1-6.9h7c2.7,0,4.3,2.9,2.9,5.2l0,0C43.1,23.9,42,24.5,40.8,24.5z"/>
	<path class="st0" d="M41.5,34.1H24.2l4.1-6.9h13.2c2.7,0,4.3,2.9,2.9,5.2l0,0C43.8,33.5,42.7,34.1,41.5,34.1z"/>
	<g>
		<path class="st1" d="M38.9,7.4h-2.3h-8.2L17.1,27.3h-5.3v6.8h1.4h7.5h0.7l11.2-19.9h6.2c1,0,2-0.5,2.7-1.3
			C43.4,10.7,41.8,7.4,38.9,7.4z"/>
		<polygon class="st1" points="9.8,27.3 9.8,14.2 13.2,14.2 22.1,14.2 26.3,7.4 13.2,7.4 2.9,7.4 2.9,34.1 13.2,34.1 13.2,27.3 		
			"/>
	</g>
</g>
<g>
	<path class="st1" d="M62.5,15.5c-0.5,0-0.9,0.1-1.2,0.3c-0.3,0.1-0.5,0.3-0.7,0.5c-0.2,0.2-0.3,0.4-0.3,0.7
		c-0.1,0.3-0.1,0.5-0.1,0.7v6c0,0.3,0,0.5,0.1,0.7s0.2,0.5,0.3,0.7c0.2,0.2,0.4,0.4,0.7,0.5c0.3,0.1,0.7,0.2,1.2,0.3v1.9
		c-1.4,0-2.5-0.2-3.4-0.4c-0.9-0.3-1.6-0.6-2.2-1c-0.5-0.4-1-0.9-1.2-1.5c-0.2-0.6-0.3-1.1-0.3-1.8v-4.8c0-0.6,0.1-1.2,0.3-1.8
		c0.2-0.6,0.6-1,1.2-1.5c0.5-0.4,1.3-0.8,2.2-1c0.9-0.3,2-0.4,3.4-0.4V15.5z M63.3,13.6c1.3,0,2.3,0.2,3.2,0.4
		c0.9,0.2,1.6,0.5,2.1,1c0.5,0.4,0.9,0.9,1.1,1.4c0.2,0.5,0.3,1.1,0.3,1.7v1h-4.6V18c0-0.3,0-0.5-0.1-0.8c-0.1-0.3-0.2-0.5-0.3-0.8
		c-0.2-0.2-0.4-0.4-0.7-0.6c-0.3-0.2-0.7-0.3-1.1-0.3L63.3,13.6L63.3,13.6z M63.3,26c0.5,0,0.9-0.1,1.1-0.3c0.3-0.2,0.5-0.3,0.7-0.6
		c0.2-0.2,0.3-0.5,0.3-0.8c0.1-0.3,0.1-0.6,0.1-0.9v-1.3H70v1c0,0.6-0.1,1.2-0.3,1.7c-0.2,0.5-0.6,1-1.1,1.5c-0.5,0.4-1.2,0.8-2.1,1
		c-0.9,0.3-2,0.4-3.3,0.4L63.3,26L63.3,26z"/>
	<path class="st1" d="M72.3,27.6V13.9H77v13.7C77,27.6,72.3,27.6,72.3,27.6z M77.7,19.4h0.8c0.5,0,1-0.1,1.3-0.2s0.6-0.3,0.8-0.4
		c0.2-0.2,0.3-0.4,0.4-0.6c0.1-0.3,0.1-0.5,0.1-0.8c0-0.4-0.1-0.7-0.2-1c-0.2-0.3-0.3-0.4-0.6-0.5c-0.3-0.1-0.6-0.2-1-0.3
		c-0.4,0-0.9-0.1-1.4-0.1h-0.2v-1.6h0.1c1.1,0,2.2,0.1,3.1,0.2c1,0.1,1.7,0.3,2.4,0.6c0.7,0.3,1.2,0.6,1.6,1.1
		c0.4,0.4,0.5,1,0.5,1.7c0,0.7-0.3,1.3-0.9,1.7c-0.6,0.4-1.6,0.8-2.8,1c0.8,0.1,1.5,0.3,2.1,0.5c0.6,0.2,1,0.5,1.4,0.8
		c0.3,0.3,0.6,0.6,0.8,1c0.2,0.3,0.2,0.8,0.2,1.1c0,0.7-0.1,1.2-0.4,1.7c-0.3,0.5-0.7,0.9-1.3,1.3c-0.6,0.3-1.4,0.6-2.3,0.8
		c-0.9,0.2-2,0.3-3.3,0.3h-1v-1.7h0.6c0.7,0,1.3-0.1,1.7-0.2c0.4-0.1,0.8-0.3,1-0.5c0.2-0.2,0.4-0.5,0.4-0.8s0.1-0.7,0.1-1
		c0-0.3-0.1-0.7-0.2-1c-0.1-0.3-0.3-0.5-0.5-0.8c-0.3-0.2-0.6-0.4-1-0.5c-0.4-0.1-1-0.2-1.6-0.2h-0.6V19.4z"/>
	<path class="st1" d="M94.4,19l-1.3,4.1h2.7l0.4,1.4h-3.4l-1.1,3.1h-4.6l5.5-13.7L94.4,19z M93.4,13.9H97l5.6,13.7H98l-2.9-8.7
		L93.4,13.9z"/>
	<path class="st1" d="M110.2,27.9c-1.1,0-2.1-0.2-2.9-0.4c-0.8-0.2-1.5-0.5-2.1-0.9c-0.5-0.4-1-0.8-1.3-1.3c-0.3-0.5-0.5-1-0.5-1.5
		l4.7-0.5c0,0.3,0.1,0.6,0.1,0.9c0.1,0.3,0.2,0.6,0.3,0.8c0.2,0.3,0.3,0.4,0.6,0.6c0.3,0.2,0.6,0.3,1,0.3L110.2,27.9L110.2,27.9z
		 M108.4,21.3l-1.1-0.5c-0.5-0.2-1-0.4-1.5-0.7c-0.5-0.3-0.9-0.5-1.3-0.8c-0.4-0.3-0.7-0.6-0.9-1s-0.3-0.8-0.3-1.2
		c0-0.5,0.2-1,0.5-1.4c0.3-0.4,0.8-0.8,1.3-1.1c0.6-0.3,1.3-0.5,2.1-0.7s1.7-0.3,2.7-0.3v1.9c-0.3,0-0.6,0.1-0.9,0.2
		c-0.3,0.1-0.4,0.2-0.6,0.3c-0.2,0.1-0.3,0.3-0.3,0.4c-0.1,0.2-0.1,0.3-0.1,0.5c0,0.2,0.1,0.4,0.2,0.6c0.1,0.2,0.3,0.4,0.5,0.6
		c0.2,0.2,0.4,0.3,0.7,0.5c0.3,0.2,0.6,0.3,0.9,0.4c0.1,0.1,0.3,0.2,0.6,0.3c0.2,0.1,0.5,0.2,0.7,0.3L108.4,21.3z M112.1,19.9
		l0.5,0.3c0.6,0.3,1.2,0.6,1.8,1c0.6,0.3,1,0.7,1.5,1c0.4,0.3,0.8,0.8,1,1.2c0.3,0.4,0.4,0.9,0.4,1.4s-0.2,0.9-0.5,1.3
		c-0.3,0.4-0.8,0.7-1.4,1c-0.6,0.3-1.3,0.5-2,0.7c-0.8,0.2-1.6,0.3-2.5,0.3V26c0.3,0,0.6-0.1,0.9-0.1c0.2-0.1,0.4-0.2,0.6-0.3
		c0.2-0.1,0.3-0.3,0.3-0.4c0.1-0.2,0.1-0.3,0.1-0.5c0-0.3-0.1-0.6-0.3-0.8c-0.2-0.3-0.4-0.5-0.7-0.8c-0.3-0.3-0.6-0.5-1-0.7
		c-0.4-0.2-0.8-0.4-1.2-0.6l-0.6-0.3L112.1,19.9z M110.7,13.6c0.9,0,1.7,0.1,2.5,0.3c0.8,0.2,1.5,0.4,2,0.7c0.6,0.3,1,0.7,1.4,1.1
		c0.3,0.4,0.5,0.9,0.6,1.3v0.3l-4.8,0.4c0-0.1,0-0.2,0-0.2s0-0.2,0-0.3c0-0.2-0.1-0.3-0.1-0.5c-0.1-0.2-0.2-0.3-0.3-0.5
		c-0.1-0.2-0.3-0.3-0.5-0.4c-0.2-0.1-0.5-0.2-0.8-0.3L110.7,13.6L110.7,13.6z"/>
	<path class="st1" d="M119.4,27.6V13.9h4.7v13.7C124.1,27.6,119.4,27.6,119.4,27.6z M124.8,13.9h5.2v1.7h-5.2V13.9z M124.8,19.7h3.5
		v1.7h-3.5V19.7z M124.8,25.9h5.2v1.7h-5.2V25.9z"/>
</g>
</svg>
